<svg xmlns="http://www.w3.org/2000/svg" width="45.244" height="22" viewBox="0 0 45.244 22">
  <g id="Group_13879" data-name="Group 13879" transform="translate(-1232 -58)">
    <g id="_5546701_uae_asia_circle_country_flag_icon" data-name="5546701_uae_asia_circle_country_flag_icon" transform="translate(1218 44)">
      <g id="Group_245" data-name="Group 245" transform="translate(20.16 14)">
        <path id="Path_224" data-name="Path 224" d="M57.2,21.326H42v-6.2A10.8,10.8,0,0,1,46.84,14a11,11,0,0,1,9.526,5.5A10.568,10.568,0,0,1,57.2,21.326Z" transform="translate(-42 -14)" fill="#038a45"/>
        <path id="Path_225" data-name="Path 225" d="M57.84,50.974a10.657,10.657,0,0,1-.638,3.674H42V47.3H57.2A10.75,10.75,0,0,1,57.84,50.974Z" transform="translate(-42 -39.974)" fill="#fffffb"/>
        <path id="Path_226" data-name="Path 226" d="M57.2,80.7a10.569,10.569,0,0,1-.836,1.826,10.956,10.956,0,0,1-9.526,5.5A10.8,10.8,0,0,1,42,86.9V80.7Z" transform="translate(-42 -66.026)" fill="#020202"/>
      </g>
      <path id="Path_227" data-name="Path 227" d="M20.16,19.1V38.856a11.108,11.108,0,0,1-4.686-4.378A11.183,11.183,0,0,1,14,28.978a11.293,11.293,0,0,1,.616-3.674,10.569,10.569,0,0,1,.836-1.826A11.291,11.291,0,0,1,20.16,19.1Z" transform="translate(0 -3.978)" fill="#ec2025"/>
    </g>
    <g id="noun_Next_1135493" transform="translate(1277.244 66) rotate(90)">
      <path id="Path_109" data-name="Path 109" d="M6.193,4.989,1.454.25a.852.852,0,0,0-1.2,1.2L4.465,5.67.25,9.886a.852.852,0,0,0,1.2,1.2L6.193,6.351A.963.963,0,0,0,6.193,4.989Z" transform="translate(0 0)"/>
    </g>
  </g>
</svg>
