<svg xmlns="http://www.w3.org/2000/svg" width="63.387" height="50.274" viewBox="0 0 63.387 50.274">
  <g id="Group_14" data-name="Group 14" transform="translate(0)">
    <path id="Path_4" data-name="Path 4" d="M286.6,619.019v22.918c1.85.067,2.31-.005,3.5-.005a19.227,19.227,0,0,0,19.239-19.218A19.434,19.434,0,0,0,308.99,619H286.6Z" transform="translate(-256.21 -591.692)" fill="#f7b7b7"/>
    <path id="Path_5" data-name="Path 5" d="M191.739,526.942A22.949,22.949,0,0,0,168.8,504.2v22.743Z" transform="translate(-161.938 -500.028)" fill="#1f4f66"/>
    <path id="Path_8" data-name="Path 8" d="M2.294,0A2.294,2.294,0,1,1,0,2.294,2.294,2.294,0,0,1,2.294,0Z" transform="translate(3.196 0)" fill="#1f4f66"/>
    <circle id="Ellipse_3" data-name="Ellipse 3" cx="1.51" cy="1.51" r="1.51" transform="translate(11.822 11.43)" fill="#fff"/>
    <path id="Path_6" data-name="Path 6" d="M308.933,518.8A22.9,22.9,0,0,1,319.7,499.378a23.943,23.943,0,0,0-33,21.946h22.39a17.757,17.757,0,0,1-.157-2.521Z" transform="translate(-256.31 -494.408)" fill="#f26e5c"/>
    <g id="Group_1" data-name="Group 1" transform="translate(0 27.504)">
      <path id="Path_7" data-name="Path 7" d="M133.7,642.843h29.8A22.768,22.768,0,0,0,140.759,620.1h-.175c-.02.9-.02,1.86-.02,2.779C140.544,633.779,141.287,641.962,133.7,642.843Z" transform="translate(-133.7 -620.1)" fill="#6ed3db"/>
    </g>
  </g>
</svg>
